<svg xmlns="http://www.w3.org/2000/svg" width="190" height="190" style="enable-background:new 0 0 190.496 190.497" xml:space="preserve"><path d="M46.955 148.69c9.833-.52 16.05-3.731 18.483-9.559 1.039-2.474 1.146-5.117.812-7.683 2.262 1.192 5.159 2.304 8.15 2.304.583 0 1.161-.038 1.744-.126 3.03-.459 5.597-2.205 7.415-5.023a2.812 2.812 0 0 0-.84-3.875c-1.298-.819-3.037-.448-3.869.844-.964 1.499-2.088 2.287-3.535 2.517-3.621.574-8.321-2.561-9.84-3.809-.492-.416-1.081-.574-1.683-.59-1.053-2.102-2.234-3.87-3.198-4.958-11.138-12.461-11.608-22.708-11.62-22.862-.035-1.538-1.228-2.559-2.859-2.729a2.806 2.806 0 0 0-2.744 2.855c.012.497.381 12.306 13.043 26.468 2.353 2.654 5.912 9.62 3.859 14.528-1.904 4.558-8.449 5.85-13.603 6.123-1.541.088-2.729 1.4-2.65 2.933a2.796 2.796 0 0 0 2.79 2.665l.145-.023z"/><path d="M46.238 89.557c-.016-.021 3.776-.572 7.711 8.747.281.679 2.886 6.671 8.237 8.258.7.208 1.557.366 2.532.366 1.784 0 3.967-.523 6.388-2.205a2.779 2.779 0 0 0 .711-3.89 2.781 2.781 0 0 0-3.889-.713c-1.55 1.068-2.919 1.429-4.137 1.068-2.379-.69-4.161-3.864-4.66-5.041-6.012-14.284-13.655-12.22-14.503-11.953-1.466.49-2.337 2.096-1.849 3.571.481 1.467 1.975 2.263 3.459 1.792zM72.759 73.453a2.813 2.813 0 0 0 1.518 3.661l1.071.211a2.806 2.806 0 0 0 2.59-1.729c8.059-19.466 1.064-46.698.772-47.847-.392-1.501-1.905-2.432-3.413-1.995a2.779 2.779 0 0 0-1.994 3.417c.054.268 6.801 26.542-.544 44.282zM69.946 147.022c-1.518-.229-2.958.799-3.198 2.33a2.807 2.807 0 0 0 2.332 3.207c.117.011 10.555 1.768 13.296 12.214a2.801 2.801 0 0 0 2.706 2.09l.711-.099a2.789 2.789 0 0 0 1.99-3.414c-3.653-13.937-17.26-16.235-17.837-16.328zM74.743 171.711c-7.101 1.631-18.223-11.906-23.595-20.782a2.806 2.806 0 0 0-4.802 2.906c1.534 2.544 14.675 23.601 27.26 23.601.789 0 1.562-.087 2.342-.251a2.813 2.813 0 0 0 2.135-3.348c-.33-1.513-1.822-2.448-3.34-2.126zM45.517 136.368a2.807 2.807 0 0 0 2.773-2.43 2.815 2.815 0 0 0-2.41-3.151c-6.106-.811-9.155-11.667-9.886-16.159 1.272-19.617-5.72-26.856-6.026-27.16a2.782 2.782 0 0 0-3.908-.017c-1.097 1.06-1.125 2.832-.09 3.945.058.063 5.577 6.17 4.412 23.166l.026.602c.122.799 3.04 19.622 14.729 21.171l.38.033z"/><path d="M57.872 86.37a2.806 2.806 0 0 0 1.423 3.7l1.137.24a2.799 2.799 0 0 0 2.557-1.664c2.918-6.575-.143-18.112-.506-19.412l-.285-.679c-7.324-12.372 2.573-24.826 2.99-25.349.567-.694.701-1.567.523-2.38a40.08 40.08 0 0 0 3.187 3.322 2.817 2.817 0 0 0 1.907.747c.761 0 1.505-.304 2.055-.898a2.81 2.81 0 0 0-.145-3.962c-5.089-4.7-7.496-9.138-6.992-12.826.625-4.588 5.58-7.198 5.71-7.267a2.81 2.81 0 0 0 1.245-3.754 2.81 2.81 0 0 0-3.763-1.256c-.311.156-7.653 3.907-8.727 11.448-.583 4.057.787 8.265 3.999 12.569-1.132-.528-2.5-.298-3.335.717-.524.638-12.628 15.757-3.673 31.407.805 3.1 2.406 11.431.693 15.297zM85.619 85.467c-.974 3.571-8.813 3.667-12.472 3.155-1.49-.161-2.949.851-3.168 2.382a2.814 2.814 0 0 0 2.389 3.166c.504.071 2.22.291 4.438.291 4.989 0 12.485-1.109 14.228-7.52a2.81 2.81 0 0 0-1.967-3.441c-1.493-.385-3.033.484-3.448 1.967z"/><path d="M172.978 92.354c4.202-25.853-6.425-34.493-10.131-36.667 1.434-16.922-8.093-24.146-11.193-26.017-.275-3.103-1.152-6.017-2.711-8.706-5.986-10.271-19.382-13.58-21.284-14.009C123.251 2.364 118.551 0 113.599 0l-.261.005c-8.506.14-15.001 7.163-18.074 11.229C92.187 7.168 85.692.145 77.186.005L76.922 0c-4.945 0-9.649 2.364-14.052 6.955-1.906.429-15.297 3.737-21.294 14.009-1.557 2.688-2.449 5.603-2.706 8.706-3.1 1.871-12.63 9.094-11.195 26.011-3.688 2.175-14.334 10.811-10.131 36.668-1.037 1.934-7.571 14.832-4.086 27.199.812 2.851 2.164 5.395 3.885 7.71-.325 3.235-.731 18.518 18.037 32.558 7.16 5.365 13.907 13.188 20.049 23.229l.604.705c.385.328 8.349 6.747 17.885 6.747 1.793 0 3.647-.229 5.512-.783 6.624-1.903 11.901-7.286 15.804-15.945 3.896 8.659 9.182 14.042 15.802 15.945 1.872.554 3.722.783 5.511.783 9.538-.005 17.499-6.419 17.895-6.747l.603-.705c6.14-10.035 12.879-17.855 20.05-23.229 18.733-14.02 18.346-29.297 18.022-32.553 1.746-2.314 3.092-4.864 3.891-7.715 3.543-12.349-2.98-25.238-4.03-27.194zm-80.966 74.487c-3.368 9.871-8.09 15.754-14.074 17.488-7.986 2.343-16.227-3.354-17.986-4.662-6.434-10.43-13.572-18.62-21.197-24.339-11.287-8.45-14.619-17.122-15.55-22.496.9.641 1.759 1.298 2.775 1.872l1.365.345c.981 0 1.933-.513 2.447-1.434a2.794 2.794 0 0 0-1.069-3.814c-13.756-7.688-11.286-21.691-8.517-29.499l1.3.36.628-.07a2.802 2.802 0 0 0 2.101-3.366c-5.279-22.864.783-32.082 4.433-35.387.696 3.204 1.707 6.651 3.199 10.444a2.802 2.802 0 0 0 2.605 1.77l1.037-.194c1.441-.572 2.148-2.203 1.576-3.63-8.194-20.701-1.924-30.266 2.208-33.987.25 1.346.502 2.692.962 4.093a2.796 2.796 0 0 0 2.668 1.937l.856-.134a2.79 2.79 0 0 0 1.796-3.53c-1.84-5.694-1.556-10.676.849-14.826 2.481-4.293 6.85-7.122 10.634-8.887a2.759 2.759 0 0 0 1.214 2.936 2.798 2.798 0 0 0 3.861-.856C66.935 9.41 71.922 5.582 76.932 5.582l.145.005c7.382.112 13.372 8.356 14.922 10.698l.013 150.556zm59.772-11.512c-7.634 5.724-14.764 13.914-21.198 24.35-1.754 1.313-9.978 6.984-17.956 4.663-5.981-1.73-10.726-7.606-14.102-17.484V16.295c2.223-3.447 8.208-10.574 14.912-10.681l.146-.006c5.019 0 9.987 3.839 14.809 11.393a2.795 2.795 0 0 0 3.862.856c1.019-.643 1.447-1.828 1.215-2.936 3.792 1.77 8.143 4.593 10.627 8.881 2.408 4.148 2.688 9.138.849 14.827a2.803 2.803 0 0 0 1.794 3.53l.859.134a2.799 2.799 0 0 0 2.665-1.938c.459-1.401.711-2.752.968-4.096 4.121 3.727 10.402 13.284 2.212 33.989a2.797 2.797 0 0 0 1.575 3.631l1.03.197a2.8 2.8 0 0 0 2.605-1.771 66.14 66.14 0 0 0 3.204-10.436c3.645 3.305 9.707 12.518 4.435 35.377a2.808 2.808 0 0 0 2.102 3.365l.627.071 1.254-.335c1.621 4.613 3.162 11.345 1.378 17.681-1.39 4.958-4.706 8.925-9.838 11.786a2.807 2.807 0 0 0 1.378 5.254l1.368-.351c1.013-.569 1.866-1.23 2.759-1.865-.914 5.365-4.262 14.039-15.539 22.477z"/><path d="M119.125 19.949c.05.027 5.031 2.634 5.686 7.228.542 3.691-1.882 8.143-6.98 12.859a2.806 2.806 0 0 0 1.911 4.86c.677 0 1.35-.25 1.904-.747a44.96 44.96 0 0 0 3.188-3.317c-.181.812-.055 1.686.524 2.38.106.124 10.355 12.911 2.988 25.349l-.285.673c-.35 1.289-3.419 12.837-.503 19.412a2.796 2.796 0 0 0 2.562 1.664l1.132-.24a2.806 2.806 0 0 0 1.423-3.7c-1.546-3.48-.421-11.073.695-15.292 8.952-15.655-3.161-30.769-3.688-31.407-.813-1.009-2.194-1.245-3.325-.717 3.218-4.303 4.586-8.512 4.004-12.569-1.066-7.541-8.416-11.291-8.728-11.447a2.812 2.812 0 0 0-3.76 1.256 2.801 2.801 0 0 0 1.252 3.755zM143.881 143.099c-5.155-.274-11.703-1.55-13.604-6.124-2.045-4.914 1.518-11.88 3.863-14.522 12.667-14.156 13.022-25.981 13.034-26.474a2.793 2.793 0 0 0-2.726-2.846c-1.579-.079-2.823 1.183-2.877 2.715 0 .109-.447 10.38-11.612 22.873-.975 1.071-2.156 2.85-3.201 4.946-.591.022-1.188.186-1.69.602-1.514 1.247-6.188 4.366-9.828 3.81-1.453-.231-2.583-1.041-3.535-2.524-.837-1.3-2.582-1.679-3.868-.842a2.797 2.797 0 0 0-.843 3.875c1.816 2.83 4.383 4.568 7.414 5.028.58.093 1.162.119 1.736.119 2.997 0 5.887-1.104 8.152-2.303-.34 2.566-.22 5.197.817 7.677 2.428 5.834 8.644 9.04 18.481 9.565l.139.005a2.801 2.801 0 0 0 2.801-2.665c.077-1.514-1.11-2.834-2.653-2.915z"/><path d="M126.759 101.199c-1.229.346-2.577.011-4.137-1.072a2.79 2.79 0 0 0-3.896.712 2.809 2.809 0 0 0 .711 3.896c2.432 1.675 4.603 2.199 6.396 2.199.975 0 1.83-.153 2.53-.36 5.346-1.576 7.96-7.584 8.232-8.241 3.814-9.048 7.427-8.75 7.694-8.769 1.45.416 2.922-.392 3.403-1.809.481-1.475-.312-3.059-1.766-3.546-.858-.281-8.488-2.345-14.502 11.962-.496 1.154-2.29 4.328-4.665 5.028zM115.191 77.331l1.074-.211a2.8 2.8 0 0 0 1.514-3.661c-7.332-17.705-.589-44.014-.536-44.277a2.79 2.79 0 0 0-2.003-3.417c-1.505-.427-3.021.503-3.404 1.995-.306 1.149-7.28 28.38.774 47.847a2.777 2.777 0 0 0 2.581 1.724zM121.473 152.559a2.793 2.793 0 0 0 2.325-3.193c-.243-1.535-1.718-2.562-3.198-2.333-.58.093-14.181 2.391-17.852 16.328a2.794 2.794 0 0 0 1.986 3.415l.713.099c1.251 0 2.39-.832 2.709-2.091 2.723-10.32 12.83-12.149 13.317-12.225zM143.235 149.988c-1.303-.794-3.043-.378-3.848.941-5.373 8.876-16.524 22.436-23.594 20.782-1.521-.322-3.011.612-3.348 2.125a2.805 2.805 0 0 0 2.121 3.353 11.75 11.75 0 0 0 2.353.252c12.588 0 25.724-21.057 27.25-23.602a2.78 2.78 0 0 0-.934-3.851zM164.549 91.401a2.808 2.808 0 0 0-.027-3.934 2.807 2.807 0 0 0-3.963 0c-.306.304-7.299 7.543-6.019 27.16-.688 4.246-3.797 15.349-9.894 16.159a2.82 2.82 0 0 0-2.405 3.151 2.808 2.808 0 0 0 2.772 2.43l.374-.02c11.691-1.562 14.604-20.386 14.73-21.185l.025-.591c-1.148-16.863 4.264-23.002 4.407-23.17zM118.181 94.176a2.815 2.815 0 0 0 2.386-3.166 2.845 2.845 0 0 0-3.165-2.383c-2.373.343-11.397.791-12.486-3.154-.405-1.494-1.938-2.354-3.437-1.965a2.801 2.801 0 0 0-1.97 3.439c1.745 6.411 9.236 7.519 14.232 7.519a35.453 35.453 0 0 0 4.44-.29z"/></svg>
